<?xml version="1.0" encoding="UTF-8"?>
<!-- macOS Sequoia folder. Placeholders: {{COLOR}} (main), {{COLOR_DARK}} (back tab) -->
<svg xmlns="http://www.w3.org/2000/svg" viewBox="0 0 64 64" width="64" height="64">
  <!-- Back tab -->
  <path d="M6 16 a3 3 0 0 1 3 -3 H24 l4 4 H55 a3 3 0 0 1 3 3 V52 a3 3 0 0 1 -3 3 H9 a3 3 0 0 1 -3 -3 z"
        fill="{{COLOR_DARK}}"/>
  <!-- Front panel -->
  <path d="M6 22 a3 3 0 0 1 3 -3 H55 a3 3 0 0 1 3 3 V52 a3 3 0 0 1 -3 3 H9 a3 3 0 0 1 -3 -3 z"
        fill="{{COLOR}}"/>
  <!-- Top highlight fold -->
  <path d="M6 22 a3 3 0 0 1 3 -3 H55 a3 3 0 0 1 3 3 V23 H6 z" fill="#FFFFFF" opacity="0.18"/>
  {{GLYPH}}
</svg>
